<svg width="818" height="349" viewBox="0 0 818 349" fill="none" xmlns="http://www.w3.org/2000/svg">
  <g clip-path="url(#clip0_1_29)">
    <rect width="818" height="349" rx="28" fill="white"/>
    <path d="M330.717 209.701L329.385 208.701C324.887 205.37 320.223 203.621 315.225 203.621C312.144 203.621 309.811 204.204 308.229 205.286C306.646 206.452 305.897 207.868 305.897 209.617C305.897 212.616 307.729 214.865 311.477 216.447C313.476 217.28 317.058 218.446 322.305 220.112C327.552 221.694 331.55 223.277 334.465 224.693C343.877 229.274 348.541 235.937 348.541 244.599C348.541 252.012 345.626 258.009 339.712 262.756C333.799 267.42 325.72 269.753 315.392 269.753C308.562 269.753 302.315 268.503 296.652 265.921C290.988 263.339 286.574 260.258 283.492 256.676C282.409 255.427 281.826 254.094 281.826 252.761C281.826 251.346 282.492 250.18 283.825 249.097L289.988 243.683C290.988 242.767 292.154 242.267 293.403 242.267C294.653 242.267 295.985 242.933 297.318 244.349L297.984 245.016C303.981 251.012 309.978 254.011 315.892 254.011C318.973 254.011 321.389 253.428 323.221 252.262C325.053 251.096 325.97 249.513 325.97 247.681C325.97 244.099 322.388 241.268 315.309 239.102C314.309 238.769 312.56 238.186 310.145 237.436C307.729 236.687 305.814 236.104 304.481 235.687C303.148 235.271 301.482 234.604 299.567 233.855C297.651 233.022 295.902 232.189 294.403 231.189C287.656 227.108 284.325 221.195 284.325 213.532C284.325 206.702 287.073 200.789 292.654 195.625C298.151 190.461 305.73 187.962 315.309 187.962C320.806 187.962 325.886 188.795 330.634 190.544C335.381 192.293 339.129 194.125 341.878 196.208C344.293 197.874 345.543 199.623 345.543 201.455C345.543 202.954 344.876 204.37 343.46 205.536L338.213 210.367C337.214 211.283 336.048 211.783 334.798 211.783C333.965 211.783 332.633 211.117 330.717 209.701Z" fill="#2D62A6"/>
    <path d="M381.024 264.255V213.699C381.024 212.866 380.691 212.199 380.108 211.616C379.525 211.033 378.859 210.7 378.026 210.7H360.202C358.286 210.7 356.704 210.117 355.454 208.951C354.205 207.785 353.622 206.203 353.622 204.37V198.457C353.622 196.541 354.205 194.958 355.454 193.792C356.704 192.543 358.286 191.96 360.202 191.96H424.335C426.251 191.96 427.833 192.543 429.082 193.792C430.332 194.958 430.915 196.541 430.915 198.457V204.37C430.915 206.286 430.332 207.785 429.082 208.951C427.833 210.117 426.251 210.7 424.335 210.7H406.511C405.761 210.7 405.095 210.867 404.512 211.283C403.929 211.7 403.596 212.199 403.596 212.866V263.839C403.596 265.755 402.929 267.337 401.597 268.67C400.264 270.002 398.682 270.669 396.766 270.669H387.437C385.522 270.669 383.939 270.086 382.69 268.836C381.607 267.754 381.024 266.171 381.024 264.255Z" fill="#2D62A6"/>
    <path d="M474.975 270.586C462.815 270.586 452.986 266.837 445.574 259.341C438.078 251.845 434.413 241.851 434.413 229.274C434.413 218.03 438.078 208.451 445.407 200.539C452.737 192.71 462.648 188.712 475.058 188.712C487.219 188.712 497.047 192.46 504.46 199.872C511.956 207.369 515.62 217.363 515.62 229.857C515.62 241.101 511.956 250.763 504.626 258.592C497.297 266.671 487.385 270.586 474.975 270.586ZM474.975 252.262C480.306 252.262 484.637 250.263 487.968 246.182C491.3 242.1 492.966 236.77 492.966 230.107C492.966 223.277 491.216 217.78 487.718 213.532C484.22 209.284 479.972 207.202 474.892 207.202C469.561 207.202 465.23 209.201 461.898 213.282C458.567 217.28 456.901 222.694 456.901 229.357C456.901 236.187 458.65 241.684 462.148 246.015C465.646 250.096 469.894 252.262 474.975 252.262Z" fill="#2D62A6"/>
    <path d="M577.755 235.854L594.746 260.008C595.579 261.09 595.995 262.257 595.995 263.506C595.995 264.839 595.495 265.921 594.662 266.837C593.746 267.754 592.497 268.17 590.998 268.17H577.255C576.172 268.17 575.006 267.92 573.673 267.337C572.424 266.754 571.425 266.088 570.842 265.172L555.683 241.601C554.767 240.268 553.767 239.602 552.601 239.602C550.852 239.602 549.936 240.768 549.936 243.017V261.34C549.936 263.256 549.27 264.839 547.937 266.171C546.604 267.504 545.022 268.17 543.106 268.17H533.528C531.612 268.17 530.03 267.504 528.697 266.171C527.364 264.839 526.698 263.256 526.698 261.34V196.291C526.698 194.375 527.364 192.793 528.697 191.377C530.03 190.044 531.612 189.378 533.528 189.378H566.344C573.84 189.378 579.837 191.544 584.418 195.958C588.999 200.372 591.248 205.619 591.248 211.866C591.248 216.197 590.165 220.112 588.083 223.527C585.917 227.025 582.919 229.69 579.087 231.606L578.671 231.856C577.505 232.356 576.922 233.022 576.922 233.688C576.838 234.271 577.172 234.937 577.755 235.854ZM552.934 226.275H557.765C560.597 226.275 563.012 225.276 565.011 223.277C567.01 221.278 568.01 218.696 568.01 215.531C568.01 212.449 567.094 209.951 565.261 208.035C563.429 206.119 561.013 205.12 557.932 205.12H553.018C552.185 205.12 551.518 205.453 550.935 206.036C550.352 206.619 550.019 207.285 550.019 208.118V223.443C550.019 224.276 550.352 224.943 550.935 225.442C551.435 226.025 552.101 226.275 552.934 226.275Z" fill="#2D62A6"/>
    <path d="M648.967 236.936H634.475C633.642 236.936 632.976 237.27 632.393 237.853C631.81 238.436 631.477 239.102 631.477 239.935V248.68C631.477 249.513 631.81 250.18 632.393 250.763C632.976 251.346 633.642 251.679 634.475 251.679H662.044C663.96 251.679 665.542 252.345 666.792 253.594C668.041 254.844 668.624 256.51 668.624 258.342V261.757C668.624 263.672 668.041 265.255 666.792 266.421C665.542 267.67 663.96 268.253 662.044 268.253H615.568C613.653 268.253 612.07 267.587 610.738 266.254C609.405 264.922 608.739 263.339 608.739 261.424V196.374C608.739 194.459 609.405 192.876 610.738 191.46C612.07 190.128 613.653 189.461 615.568 189.461H660.961C662.877 189.461 664.459 190.044 665.709 191.294C666.958 192.46 667.541 194.042 667.541 195.958V199.706C667.541 201.622 666.958 203.121 665.709 204.287C664.459 205.453 662.877 206.036 660.961 206.036H634.475C633.642 206.036 632.976 206.369 632.393 206.952C631.81 207.535 631.477 208.201 631.477 209.034V217.78C631.477 218.613 631.81 219.279 632.393 219.779C632.976 220.362 633.642 220.612 634.475 220.612H648.967C650.3 220.612 651.383 221.028 652.299 221.861C653.215 222.694 653.632 223.86 653.632 225.193V232.189C653.632 233.605 653.215 234.688 652.382 235.521C651.466 236.52 650.383 236.936 648.967 236.936Z" fill="#2D62A6"/>
    <path d="M728.176 209.701L726.843 208.701C722.346 205.37 717.681 203.621 712.684 203.621C709.602 203.621 707.27 204.204 705.688 205.286C704.105 206.452 703.356 207.868 703.356 209.617C703.356 212.616 705.188 214.865 708.936 216.447C710.935 217.28 714.516 218.446 719.764 220.112C725.011 221.694 729.009 223.277 731.924 224.693C741.336 229.274 746 235.937 746 244.599C746 252.012 743.085 258.009 737.171 262.756C731.258 267.42 723.179 269.753 712.851 269.753C706.021 269.753 699.774 268.503 694.11 265.921C688.447 263.339 684.032 260.258 680.951 256.676C679.868 255.427 679.285 254.094 679.285 252.761C679.285 251.346 679.951 250.18 681.284 249.097L687.447 243.683C688.447 242.767 689.613 242.267 690.862 242.267C692.112 242.267 693.444 242.933 694.777 244.349L695.443 245.016C701.44 251.012 707.437 254.011 713.35 254.011C716.432 254.011 718.848 253.428 720.68 252.262C722.512 251.096 723.428 249.513 723.428 247.681C723.428 244.099 719.847 241.268 712.767 239.102C711.768 238.769 710.019 238.186 707.603 237.436C705.188 236.687 703.272 236.104 701.94 235.687C700.607 235.271 698.941 234.604 697.026 233.855C695.11 233.022 693.361 232.189 691.862 231.189C685.115 227.108 681.784 221.195 681.784 213.532C681.784 206.702 684.532 200.789 690.113 195.625C695.61 190.461 703.189 187.962 712.767 187.962C718.265 187.962 723.345 188.795 728.093 190.544C732.84 192.293 736.588 194.125 739.337 196.208C741.752 197.874 743.002 199.623 743.002 201.455C743.002 202.954 742.335 204.37 740.919 205.536L735.672 210.367C734.673 211.283 733.507 211.783 732.257 211.783C731.424 211.783 730.008 211.117 728.176 209.701Z" fill="#2D62A6"/>
    <path d="M312.893 159.893C300.733 159.893 290.905 156.145 283.492 148.649C275.996 141.153 272.331 131.158 272.331 118.582C272.331 107.338 275.996 97.7592 283.325 89.8467C290.655 82.0175 300.566 78.0195 312.976 78.0195C325.137 78.0195 334.965 81.7676 342.378 89.1804C349.874 96.6765 353.539 106.671 353.539 119.165C353.539 130.409 349.874 140.07 342.544 147.9C335.215 155.979 325.387 159.893 312.893 159.893ZM312.893 141.57C318.224 141.57 322.555 139.571 325.886 135.489C329.218 131.408 330.884 126.078 330.884 119.415C330.884 112.585 329.135 107.088 325.637 102.84C322.138 98.5921 317.891 96.5099 312.81 96.5099C307.479 96.5099 303.148 98.5088 299.817 102.59C296.485 106.588 294.819 112.002 294.819 118.665C294.819 125.495 296.568 130.992 300.067 135.323C303.565 139.404 307.896 141.57 312.893 141.57Z" fill="#2D62A6"/>
    <path d="M382.607 151.898V101.341C382.607 100.508 382.274 99.8415 381.691 99.2584C381.107 98.6754 380.441 98.3423 379.608 98.3423H361.784C359.869 98.3423 358.286 97.7592 357.037 96.5932C355.787 95.4271 355.204 93.8446 355.204 92.0122V86.0987C355.204 84.183 355.787 82.6005 357.037 81.4344C358.286 80.1851 359.869 79.6021 361.784 79.6021H425.917C427.833 79.6021 429.416 80.1851 430.665 81.4344C431.914 82.6005 432.497 84.183 432.497 86.0987V92.0122C432.497 93.9279 431.914 95.4271 430.665 96.5932C429.416 97.7592 427.833 98.3423 425.917 98.3423H408.093C407.344 98.3423 406.677 98.5088 406.094 98.9253C405.511 99.3417 405.178 99.8415 405.178 100.508V151.481C405.178 153.397 404.512 154.979 403.179 156.312C401.847 157.645 400.264 158.311 398.348 158.311H389.02C387.104 158.311 385.522 157.728 384.272 156.479C383.273 155.396 382.607 153.813 382.607 151.898Z" fill="#2D62A6"/>
    <path d="M476.141 141.57C482.471 141.57 487.219 138.571 490.384 132.574C491.716 129.909 493.549 128.66 495.964 128.66H505.542C507.042 128.66 508.374 129.076 509.457 129.909C510.54 130.742 511.123 131.908 511.123 133.574C511.123 136.322 510.04 139.487 507.875 142.986C505.709 146.484 503.377 149.316 500.795 151.481C494.048 157.228 485.636 160.06 475.392 160.06C463.231 160.06 453.57 156.145 446.49 148.233C439.41 140.32 435.829 130.659 435.829 119.165C435.829 111.752 437.328 105.005 440.41 98.842C443.408 92.6785 447.989 87.7645 454.069 83.9331C460.149 80.1851 467.229 78.2694 475.392 78.2694C485.386 78.2694 493.799 81.018 500.462 86.5984C503.044 88.7639 505.459 91.5125 507.708 95.094C509.957 98.5921 511.123 101.84 511.123 104.756C511.123 106.338 510.623 107.587 509.54 108.42C508.458 109.253 507.208 109.67 505.626 109.67H496.047C493.632 109.67 491.8 108.337 490.467 105.755C487.219 99.7582 482.471 96.7597 476.224 96.7597C471.394 96.7597 467.312 98.6754 463.897 102.59C460.483 106.505 458.817 112.002 458.817 119.165C458.817 126.328 460.483 131.908 463.897 135.906C467.229 139.571 471.31 141.57 476.141 141.57Z" fill="#2D62A6"/>
    <path d="M149.895 187.379C150.145 190.96 148.396 193.709 145.148 195.458C127.907 204.953 110.666 214.365 93.3414 223.777C89.6766 225.776 86.5949 225.109 84.1795 221.361C78.5991 212.699 74.6845 203.371 72.3524 193.376C71.103 188.045 73.2685 185.463 78.7657 184.797C98.6719 182.548 118.578 180.216 138.401 177.967C145.148 177.218 149.812 180.882 149.895 187.379Z" fill="#A6499A"/>
    <path d="M136.985 167.389C124.742 165.974 110.832 164.391 96.8395 162.809C90.4262 162.059 84.0961 161.226 77.6828 160.56C72.6854 159.977 71.3528 156.812 72.269 152.564C74.5178 142.236 78.5157 132.491 84.5126 123.662C86.7614 120.331 89.5933 119.498 93.258 121.497C110.083 130.742 126.907 139.904 143.732 149.066C149.312 152.147 151.061 155.895 149.645 161.143C148.396 165.724 144.981 167.639 136.985 167.389Z" fill="#EE4865"/>
    <path d="M143.149 261.424C132.238 259.258 121.743 255.427 112.331 249.097C108.916 246.765 108.833 242.85 112.081 239.935C126.074 227.025 140.233 214.282 154.393 201.622C157.974 198.457 162.139 198.123 166.053 201.039C169.885 203.87 171.051 207.785 169.135 212.283C162.555 227.358 155.975 242.434 149.312 257.509C148.229 260.091 146.23 261.507 143.149 261.424Z" fill="#0064AC"/>
    <path d="M170.218 136.989C169.801 140.82 168.136 143.652 164.887 145.401C161.389 147.233 157.974 147.067 154.976 144.485C150.062 140.32 145.231 135.989 140.483 131.658C131.321 123.329 122.16 115 113.081 106.505C108.25 101.924 108.583 98.6754 114.164 95.1772C122.743 89.8467 132.071 86.2652 141.983 84.3496C145.231 83.7665 147.813 84.3496 149.145 87.5146C155.975 103.09 162.722 118.582 169.468 134.157C169.885 135.156 169.968 136.156 170.218 136.989Z" fill="#EE4865"/>
    <path d="M180.796 260.424C176.298 260.091 174.216 257.759 174.715 254.011C176.881 238.352 179.213 222.777 181.628 207.202C182.295 203.037 185.043 200.705 189.208 200.206C193.372 199.706 196.87 201.122 198.37 205.036C203.117 217.03 207.615 229.107 212.279 241.101C213.112 243.266 212.779 245.432 211.113 246.765C202.034 253.761 191.54 257.842 180.796 260.424Z" fill="#59C4C8"/>
    <path d="M187.126 82.7671C194.039 85.6822 200.369 89.93 206.282 94.7608C217.526 103.923 217.526 104.339 209.531 116.416C204.616 123.912 199.702 131.492 194.872 138.988C191.707 143.902 187.792 145.734 183.461 144.318C178.88 142.902 176.381 139.404 176.714 133.657C177.547 118.582 178.63 103.59 179.713 88.5974C180.046 84.4329 183.294 82.0175 187.126 82.7671Z" fill="#F6921E"/>
    <path d="M213.112 167.473C207.532 167.639 204.7 166.14 202.867 162.809C201.118 159.56 200.868 155.979 203.201 153.147C211.28 143.319 219.609 133.657 228.104 124.162C230.853 121.164 234.518 121.58 236.85 124.995C242.847 133.99 246.761 143.902 248.76 154.48C249.26 157.228 247.927 159.81 245.095 160.393C233.851 163.142 222.607 165.474 213.112 167.473Z" fill="#FFC951"/>
    <path d="M211.113 177.717C215.527 178.634 220.108 179.633 224.773 180.549C231.103 181.882 237.349 183.215 243.679 184.547C247.761 185.463 249.426 188.045 248.594 192.043C246.428 201.871 242.847 211.2 237.433 219.779C234.851 223.86 230.436 224.193 227.188 220.528C219.192 211.45 211.446 202.288 203.617 193.043C201.118 190.044 200.952 186.546 202.701 183.048C204.367 179.633 207.282 178.217 211.113 177.717Z" fill="#82CAA2"/>
  </g>
  <defs>
    <clipPath id="clip0_1_29">
      <rect width="818" height="349" fill="white"/>
    </clipPath>
  </defs>
</svg>
