<svg width="818" height="237" xmlns="http://www.w3.org/2000/svg">
 <style type="text/css">.st0{fill:#0064AC;}
	.st1{fill:#A6499A;}
	.st2{fill:#EE4865;}
	.st3{fill:#59C4C8;}
	.st4{fill:#F6921E;}
	.st5{fill:#FFC951;}
	.st6{fill:#82CAA2;}</style>

 <g>
  <title>background</title>
  <rect fill="none" id="canvas_background" height="239" width="820" y="-1" x="-1"/>
 </g>
 <g>
  <title>Layer 1</title>
  <g id="svg_1">
   <path id="svg_2" d="m313.5,160.5l-1.6,-1.2c-5.4,-4 -11,-6.1 -17,-6.1c-3.7,0 -6.5,0.7 -8.4,2c-1.9,1.4 -2.8,3.1 -2.8,5.2c0,3.6 2.2,6.3 6.7,8.2c2.4,1 6.7,2.4 13,4.4c6.3,1.9 11.1,3.8 14.6,5.5c11.3,5.5 16.9,13.5 16.9,23.9c0,8.9 -3.5,16.1 -10.6,21.8c-7.1,5.6 -16.8,8.4 -29.2,8.4c-8.2,0 -15.7,-1.5 -22.5,-4.6c-6.8,-3.1 -12.1,-6.8 -15.8,-11.1c-1.3,-1.5 -2,-3.1 -2,-4.7c0,-1.7 0.8,-3.1 2.4,-4.4l7.4,-6.5c1.2,-1.1 2.6,-1.7 4.1,-1.7c1.5,0 3.1,0.8 4.7,2.5l0.8,0.8c7.2,7.2 14.4,10.8 21.5,10.8c3.7,0 6.6,-0.7 8.8,-2.1c2.2,-1.4 3.3,-3.3 3.3,-5.5c0,-4.3 -4.3,-7.7 -12.8,-10.3c-1.2,-0.4 -3.3,-1.1 -6.2,-2c-2.9,-0.9 -5.2,-1.6 -6.8,-2.1c-1.6,-0.5 -3.6,-1.3 -5.9,-2.2c-2.3,-1 -4.4,-2 -6.2,-3.2c-8.1,-4.9 -12.1,-12 -12.1,-21.2c0,-8.2 3.3,-15.3 10,-21.5c6.6,-6.2 15.7,-9.2 27.2,-9.2c6.6,0 12.7,1 18.4,3.1c5.7,2.1 10.2,4.3 13.5,6.8c2.9,2 4.4,4.1 4.4,6.3c0,1.8 -0.8,3.5 -2.5,4.9l-6.3,5.8c-1.2,1.1 -2.6,1.7 -4.1,1.7c-1,0 -2.6,-0.8 -4.9,-2.5z" class="st0"/>
   <path id="svg_3" d="m373.9,226l0,-60.7c0,-1 -0.4,-1.8 -1.1,-2.5c-0.7,-0.7 -1.5,-1.1 -2.5,-1.1l-21.4,0c-2.3,0 -4.2,-0.7 -5.7,-2.1c-1.5,-1.4 -2.2,-3.3 -2.2,-5.5l0,-7.1c0,-2.3 0.7,-4.2 2.2,-5.6c1.5,-1.5 3.4,-2.2 5.7,-2.2l77,0c2.3,0 4.2,0.7 5.7,2.2c1.5,1.4 2.2,3.3 2.2,5.6l0,7.1c0,2.3 -0.7,4.1 -2.2,5.5c-1.5,1.4 -3.4,2.1 -5.7,2.1l-21.4,0c-0.9,0 -1.7,0.2 -2.4,0.7c-0.7,0.5 -1.1,1.1 -1.1,1.9l0,61.2c0,2.3 -0.8,4.2 -2.4,5.8c-1.6,1.6 -3.5,2.4 -5.8,2.4l-11.2,0c-2.3,0 -4.2,-0.7 -5.7,-2.2c-1.3,-1.3 -2,-3.2 -2,-5.5z" class="st0"/>
   <path id="svg_4" d="m486.7,233.6c-14.6,0 -26.4,-4.5 -35.3,-13.5c-9,-9 -13.4,-21 -13.4,-36.1c0,-13.5 4.4,-25 13.2,-34.5c8.8,-9.4 20.7,-14.2 35.6,-14.2c14.6,0 26.4,4.5 35.3,13.4c9,9 13.4,21 13.4,36c0,13.5 -4.4,25.1 -13.2,34.5c-8.8,9.7 -20.7,14.4 -35.6,14.4zm0,-22c6.4,0 11.6,-2.4 15.6,-7.3c4,-4.9 6,-11.3 6,-19.3c0,-8.2 -2.1,-14.8 -6.3,-19.9c-4.2,-5.1 -9.3,-7.6 -15.4,-7.6c-6.4,0 -11.6,2.4 -15.6,7.3c-4,4.8 -6,11.3 -6,19.3c0,8.2 2.1,14.8 6.3,20c4.2,4.9 9.3,7.5 15.4,7.5z" class="st0"/>
   <path id="svg_5" d="m610.1,191.9l20.4,29c1,1.3 1.5,2.7 1.5,4.2c0,1.6 -0.6,2.9 -1.6,4c-1.1,1.1 -2.6,1.6 -4.4,1.6l-16.5,0c-1.3,0 -2.7,-0.3 -4.3,-1c-1.5,-0.7 -2.7,-1.5 -3.4,-2.6l-18.2,-28.3c-1.1,-1.6 -2.3,-2.4 -3.7,-2.4c-2.1,0 -3.2,1.4 -3.2,4.1l0,22c0,2.3 -0.8,4.2 -2.4,5.8c-1.6,1.6 -3.5,2.4 -5.8,2.4l-11.5,0c-2.3,0 -4.2,-0.8 -5.8,-2.4c-1.6,-1.6 -2.4,-3.5 -2.4,-5.8l0,-78.1c0,-2.3 0.8,-4.2 2.4,-5.9c1.6,-1.6 3.5,-2.4 5.8,-2.4l39.4,0c9,0 16.2,2.6 21.7,7.9c5.5,5.3 8.2,11.6 8.2,19.1c0,5.2 -1.3,9.9 -3.8,14c-2.6,4.2 -6.2,7.4 -10.8,9.7l-0.5,0.3c-1.4,0.6 -2.1,1.4 -2.1,2.2c-0.1,0.7 0.3,1.5 1,2.6zm-29.8,-11.5l5.8,0c3.4,0 6.3,-1.2 8.7,-3.6c2.4,-2.4 3.6,-5.5 3.6,-9.3c0,-3.7 -1.1,-6.7 -3.3,-9c-2.2,-2.3 -5.1,-3.5 -8.8,-3.5l-5.9,0c-1,0 -1.8,0.4 -2.5,1.1c-0.7,0.7 -1.1,1.5 -1.1,2.5l0,18.4c0,1 0.4,1.8 1.1,2.4c0.6,0.7 1.4,1 2.4,1z" class="st0"/>
   <path id="svg_6" d="m695.6,193.2l-17.4,0c-1,0 -1.8,0.4 -2.5,1.1c-0.7,0.7 -1.1,1.5 -1.1,2.5l0,10.5c0,1 0.4,1.8 1.1,2.5c0.7,0.7 1.5,1.1 2.5,1.1l33.1,0c2.3,0 4.2,0.8 5.7,2.3c1.5,1.5 2.2,3.5 2.2,5.7l0,4.1c0,2.3 -0.7,4.2 -2.2,5.6c-1.5,1.5 -3.4,2.2 -5.7,2.2l-55.8,0c-2.3,0 -4.2,-0.8 -5.8,-2.4c-1.6,-1.6 -2.4,-3.5 -2.4,-5.8l0,-78.1c0,-2.3 0.8,-4.2 2.4,-5.9c1.6,-1.6 3.5,-2.4 5.8,-2.4l54.5,0c2.3,0 4.2,0.7 5.7,2.2c1.5,1.4 2.2,3.3 2.2,5.6l0,4.5c0,2.3 -0.7,4.1 -2.2,5.5c-1.5,1.4 -3.4,2.1 -5.7,2.1l-31.8,0c-1,0 -1.8,0.4 -2.5,1.1c-0.7,0.7 -1.1,1.5 -1.1,2.5l0,10.5c0,1 0.4,1.8 1.1,2.4c0.7,0.7 1.5,1 2.5,1l17.4,0c1.6,0 2.9,0.5 4,1.5c1.1,1 1.6,2.4 1.6,4l0,8.4c0,1.7 -0.5,3 -1.5,4c-1.1,1.2 -2.4,1.7 -4.1,1.7z" class="st0"/>
   <path id="svg_7" d="m790.7,160.5l-1.6,-1.2c-5.4,-4 -11,-6.1 -17,-6.1c-3.7,0 -6.5,0.7 -8.4,2c-1.9,1.4 -2.8,3.1 -2.8,5.2c0,3.6 2.2,6.3 6.7,8.2c2.4,1 6.7,2.4 13,4.4c6.3,1.9 11.1,3.8 14.6,5.5c11.3,5.5 16.9,13.5 16.9,23.9c0,8.9 -3.5,16.1 -10.6,21.8c-7.1,5.6 -16.8,8.4 -29.2,8.4c-8.2,0 -15.7,-1.5 -22.5,-4.6c-6.8,-3.1 -12.1,-6.8 -15.8,-11.1c-1.3,-1.5 -2,-3.1 -2,-4.7c0,-1.7 0.8,-3.1 2.4,-4.4l7.4,-6.5c1.2,-1.1 2.6,-1.7 4.1,-1.7c1.5,0 3.1,0.8 4.7,2.5l0.8,0.8c7.2,7.2 14.4,10.8 21.5,10.8c3.7,0 6.6,-0.7 8.8,-2.1c2.2,-1.4 3.3,-3.3 3.3,-5.5c0,-4.3 -4.3,-7.7 -12.8,-10.3c-1.2,-0.4 -3.3,-1.1 -6.2,-2c-2.9,-0.9 -5.2,-1.6 -6.8,-2.1c-1.6,-0.5 -3.6,-1.3 -5.9,-2.2c-2.3,-1 -4.4,-2 -6.2,-3.2c-8.1,-4.9 -12.1,-12 -12.1,-21.2c0,-8.2 3.3,-15.3 10,-21.5c6.6,-6.2 15.7,-9.2 27.2,-9.2c6.6,0 12.7,1 18.4,3.1c5.7,2.1 10.2,4.3 13.5,6.8c2.9,2 4.4,4.1 4.4,6.3c0,1.8 -0.8,3.5 -2.5,4.9l-6.3,5.8c-1.2,1.1 -2.6,1.7 -4.1,1.7c-1,0 -2.7,-0.8 -4.9,-2.5z" class="st0"/>
  </g>
  <g id="svg_8">
   <path id="svg_9" d="m96.4,133.7c0.3,4.3 -1.8,7.6 -5.7,9.7c-20.7,11.4 -41.4,22.7 -62.2,34c-4.4,2.4 -8.1,1.6 -11,-2.9c-6.7,-10.4 -11.4,-21.6 -14.2,-33.6c-1.5,-6.4 1.1,-9.5 7.7,-10.3c23.9,-2.7 47.8,-5.5 71.6,-8.2c8.1,-0.9 13.7,3.5 13.8,11.3z" class="st1"/>
   <path id="svg_10" d="m80.9,109.7c-14.7,-1.7 -31.4,-3.6 -48.2,-5.5c-7.7,-0.9 -15.3,-1.9 -23,-2.7c-6,-0.7 -7.6,-4.5 -6.5,-9.6c2.7,-12.4 7.5,-24.1 14.7,-34.7c2.7,-4 6.1,-5 10.5,-2.6c20.2,11.1 40.4,22.1 60.6,33.1c6.7,3.7 8.8,8.2 7.1,14.5c-1.5,5.5 -5.6,7.8 -15.2,7.5z" class="st2"/>
   <path id="svg_11" d="m88.3,222.6c-13.1,-2.6 -25.7,-7.2 -37,-14.8c-4.1,-2.8 -4.2,-7.5 -0.3,-11c16.8,-15.5 33.8,-30.8 50.8,-46c4.3,-3.8 9.3,-4.2 14,-0.7c4.6,3.4 6,8.1 3.7,13.5c-7.9,18.1 -15.8,36.2 -23.8,54.3c-1.3,3.1 -3.7,4.8 -7.4,4.7z" class="st0"/>
   <path id="svg_12" d="m120.8,73.2c-0.5,4.6 -2.5,8 -6.4,10.1c-4.2,2.2 -8.3,2 -11.9,-1.1c-5.9,-5 -11.7,-10.2 -17.4,-15.4c-11,-10 -22,-20 -32.9,-30.2c-5.8,-5.5 -5.4,-9.4 1.3,-13.6c10.3,-6.4 21.5,-10.7 33.4,-13c3.9,-0.7 7,0 8.6,3.8c8.2,18.7 16.3,37.3 24.4,56c0.5,1.2 0.6,2.4 0.9,3.4z" class="st2"/>
   <path id="svg_13" d="m133.5,221.4c-5.4,-0.4 -7.9,-3.2 -7.3,-7.7c2.6,-18.8 5.4,-37.5 8.3,-56.2c0.8,-5 4.1,-7.8 9.1,-8.4c5,-0.6 9.2,1.1 11,5.8c5.7,14.4 11.1,28.9 16.7,43.3c1,2.6 0.6,5.2 -1.4,6.8c-10.9,8.4 -23.5,13.3 -36.4,16.4z" class="st3"/>
   <path id="svg_14" d="m141.1,8.1c8.3,3.5 15.9,8.6 23,14.4c13.5,11 13.5,11.5 3.9,26c-5.9,9 -11.8,18.1 -17.6,27.1c-3.8,5.9 -8.5,8.1 -13.7,6.4c-5.5,-1.7 -8.5,-5.9 -8.1,-12.8c1,-18.1 2.3,-36.1 3.6,-54.1c0.4,-5 4.3,-7.9 8.9,-7z" class="st4"/>
   <path id="svg_15" d="m172.3,109.8c-6.7,0.2 -10.1,-1.6 -12.3,-5.6c-2.1,-3.9 -2.4,-8.2 0.4,-11.6c9.7,-11.8 19.7,-23.4 29.9,-34.8c3.3,-3.6 7.7,-3.1 10.5,1c7.2,10.8 11.9,22.7 14.3,35.4c0.6,3.3 -1,6.4 -4.4,7.1c-13.5,3.3 -27,6.1 -38.4,8.5z" class="st5"/>
   <path id="svg_16" d="m169.9,122.1c5.3,1.1 10.8,2.3 16.4,3.4c7.6,1.6 15.1,3.2 22.7,4.8c4.9,1.1 6.9,4.2 5.9,9c-2.6,11.8 -6.9,23 -13.4,33.3c-3.1,4.9 -8.4,5.3 -12.3,0.9c-9.6,-10.9 -18.9,-21.9 -28.3,-33c-3,-3.6 -3.2,-7.8 -1.1,-12c2,-4.1 5.5,-5.8 10.1,-6.4z" class="st6"/>
  </g>
  <path id="svg_17" d="m292.1,100.7c-14.6,0 -26.4,-4.5 -35.3,-13.5c-9,-9 -13.4,-21 -13.4,-36.1c0,-13.5 4.4,-25 13.2,-34.5c8.8,-9.4 20.7,-14.2 35.6,-14.2c14.6,0 26.4,4.5 35.3,13.4c9,9 13.4,21 13.4,36c0,13.5 -4.4,25.1 -13.2,34.5c-8.8,9.7 -20.6,14.4 -35.6,14.4zm0,-22c6.4,0 11.6,-2.4 15.6,-7.3c4,-4.9 6,-11.3 6,-19.3c0,-8.2 -2.1,-14.8 -6.3,-19.9c-4.2,-5.1 -9.3,-7.6 -15.4,-7.6c-6.4,0 -11.6,2.4 -15.6,7.3c-4,4.8 -6,11.3 -6,19.3c0,8.2 2.1,14.8 6.3,20c4.2,4.9 9.4,7.5 15.4,7.5z" class="st0"/>
  <path id="svg_18" d="m375.8,91.1l0,-60.7c0,-1 -0.4,-1.8 -1.1,-2.5c-0.7,-0.7 -1.5,-1.1 -2.5,-1.1l-21.4,0c-2.3,0 -4.2,-0.7 -5.7,-2.1c-1.5,-1.4 -2.2,-3.3 -2.2,-5.5l0,-7.1c0,-2.3 0.7,-4.2 2.2,-5.6c1.5,-1.5 3.4,-2.2 5.7,-2.2l77,0c2.3,0 4.2,0.7 5.7,2.2c1.5,1.4 2.2,3.3 2.2,5.6l0,7.1c0,2.3 -0.7,4.1 -2.2,5.5c-1.5,1.4 -3.4,2.1 -5.7,2.1l-21.4,0c-0.9,0 -1.7,0.2 -2.4,0.7c-0.7,0.5 -1.1,1.1 -1.1,1.9l0,61.2c0,2.3 -0.8,4.2 -2.4,5.8c-1.6,1.6 -3.5,2.4 -5.8,2.4l-11.2,0c-2.3,0 -4.2,-0.7 -5.7,-2.2c-1.2,-1.3 -2,-3.2 -2,-5.5z" class="st0"/>
  <path id="svg_19" d="m488.1,78.7c7.6,0 13.3,-3.6 17.1,-10.8c1.6,-3.2 3.8,-4.7 6.7,-4.7l11.5,0c1.8,0 3.4,0.5 4.7,1.5c1.3,1 2,2.4 2,4.4c0,3.3 -1.3,7.1 -3.9,11.3c-2.6,4.2 -5.4,7.6 -8.5,10.2c-8.1,6.9 -18.2,10.3 -30.5,10.3c-14.6,0 -26.2,-4.7 -34.7,-14.2c-8.5,-9.5 -12.8,-21.1 -12.8,-34.9c0,-8.9 1.8,-17 5.5,-24.4c3.6,-7.4 9.1,-13.3 16.4,-17.9c7.3,-4.5 15.8,-6.8 25.6,-6.8c12,0 22.1,3.3 30.1,10c3.1,2.6 6,5.9 8.7,10.2c2.7,4.2 4.1,8.1 4.1,11.6c0,1.9 -0.6,3.4 -1.9,4.4c-1.3,1 -2.8,1.5 -4.7,1.5l-11.5,0c-2.9,0 -5.1,-1.6 -6.7,-4.7c-3.9,-7.2 -9.6,-10.8 -17.1,-10.8c-5.8,0 -10.7,2.3 -14.8,7c-4.1,4.7 -6.1,11.3 -6.1,19.9c0,8.6 2,15.3 6.1,20.1c4,4.4 8.9,6.8 14.7,6.8z" class="st0"/>
 </g>
</svg>